<?xml version="1.0" encoding="UTF-8"?>
<svg width="135px" height="28px" viewBox="0 0 135 28" version="1.1" xmlns="http://www.w3.org/2000/svg" xmlns:xlink="http://www.w3.org/1999/xlink">
    <!-- Generator: Sketch 55.1 (78136) - https://sketchapp.com -->
    <title>tirreno logo</title>
    <desc>Created with Sketch.</desc>
    <g id="Page-1" stroke="none" stroke-width="1" fill="none" fill-rule="evenodd">
        <g id="tirreno-logo" fill="#D7E6E1" fill-rule="nonzero">
            <path d="M105.69954,28 C104.252042,25.9097489 103.425844,23.2408751 103.425844,20.2092953 C103.425844,13.2489841 108.448472,7.9887875 115.052924,7.9887875 C121.776161,7.9887875 126.680973,13.2489841 126.680973,20.3676746 C126.680973,23.3104222 125.852055,25.9323927 124.411399,28 L115.147057,28 C118.970192,27.9516927 121.460382,24.9572812 121.460382,20.3676647 C121.460382,15.7800954 118.92927,12.7743309 115.052934,12.7743309 C111.137972,12.7743309 108.646446,15.7800855 108.646446,20.4864491 C108.646446,24.9582434 111.175588,27.9516979 114.959778,28 L105.69954,28 Z M94.9419336,28 L94.9419336,18.7858401 C94.9419336,16.0567547 94.6652544,14.791204 93.9139419,13.9607019 C93.2413245,13.2093794 92.0945583,12.7743309 90.7894029,12.7743309 C89.1283886,12.7743309 87.546564,13.6444279 86.6368721,15.0287729 C85.9642548,16.0567646 85.7667751,16.9664564 85.7667751,18.78585 L85.7667751,28 L80.5461733,28 L80.5461733,8.62181006 L85.5688011,8.62181006 L85.5688011,11.232111 C87.4277795,8.93808401 89.4446527,7.9887875 92.2920379,7.9887875 C95.3373873,7.9887875 97.9476882,9.4523123 99.134059,11.8250443 C99.964561,13.4860585 100.162535,14.9495833 100.162535,18.90414 L100.162535,28 L94.9419336,28 Z M71.559026,24.5240141 L76.8032299,24.5240141 C76.464444,25.8197095 75.9504945,26.9832925 75.2751631,28 L66.8457523,28 C69.2595494,27.6102687 70.7882612,26.4910302 71.559026,24.5240141 Z M57.6974103,28 C56.3921136,26.0348835 55.6897088,23.5210681 55.6897088,20.5651542 C55.6897088,13.1697846 60.1980984,7.94919268 66.6050711,7.94919268 C71.1530555,7.94919268 74.8309429,10.5594936 76.3340625,14.8703937 C77.0061953,16.7684824 77.2828646,18.9833296 77.2828646,22.0682738 L60.8702312,22.0682738 C61.1995205,25.5919742 62.8452274,27.4701544 66.1268211,28 L57.6974103,28 Z M66.5258815,12.4976616 C63.4805321,12.4976616 61.4240641,14.5541296 60.9890156,18.0736378 L72.0627474,18.0736378 C71.6672838,14.5541296 69.6504106,12.4976616 66.5258815,12.4976616 Z M47.7004466,28 L42.4798448,28 L42.4798448,8.62180017 L47.5024726,8.62180017 L47.5024726,11.2321011 C49.0447024,9.05684868 51.1412497,7.98877761 53.8307303,7.98877761 C54.1069249,7.98877761 54.3048891,7.98877761 54.7008273,8.02837242 L54.7008273,12.8139257 C54.2257193,12.7743309 54.1861244,12.7743309 53.7911454,12.7743309 C49.75643,12.7743309 47.7004466,14.8703937 47.7004466,19.0229244 L47.7004466,28 Z M27.7866587,28 L27.7866587,8.62180017 L32.8092864,8.62180017 L32.8092864,11.2321011 C34.3515163,9.05684868 36.4480636,7.98877761 39.1375442,7.98877761 C39.4137388,7.98877761 39.611703,7.98877761 40.0076412,8.02837242 L40.0076412,12.8139257 C39.5325331,12.7743309 39.4929383,12.7743309 39.0979593,12.7743309 C35.0632439,12.7743309 33.0072605,14.8703937 33.0072605,19.0229244 L33.0072605,28 L27.7866587,28 Z M2.80826507,28 L2.80826507,13.4068689 L0,13.4068689 L0,8.62180017 L2.80826507,8.62180017 L2.80826507,1.81937374 L8.02886686,1.81937374 L8.02886686,8.62180017 L14.5937244,8.62180017 L14.5937244,13.4068689 L8.02885697,13.4068689 L8.02885697,28 L2.80826507,28 Z M17.0680937,5.61605548 L17.0680937,0 L22.8420438,0 L22.8420438,5.61605548 L17.0680937,5.61605548 Z M17.3447629,28 L17.3447629,8.62180017 L22.5653647,8.62180017 L22.5653647,28 L17.3447629,28 Z" id="tirreno"></path>
            <path d="M131.501406,22.6432575 C130.821715,22.6432575 130.240992,22.8854426 129.759219,23.36982 C129.28005,23.8515932 129.040469,24.4336187 129.040469,25.1159138 C129.040469,25.8034172 129.278748,26.3893488 129.755313,26.8737263 C130.234482,27.3581037 130.816507,27.6002888 131.501406,27.6002888 C132.186306,27.6002888 132.768331,27.3581037 133.2475,26.8737263 C133.726669,26.3893488 133.96625,25.8034172 133.96625,25.1159138 C133.96625,24.4336187 133.726669,23.8515932 133.2475,23.36982 C132.765727,22.8854426 132.183701,22.6432575 131.501406,22.6432575 Z M134.3725,25.1159138 C134.3725,25.9101886 134.092555,26.5885672 133.532656,27.15107 C132.972758,27.7135728 132.295681,27.99482 131.501406,27.99482 C130.707131,27.99482 130.031357,27.7135728 129.474063,27.15107 C128.919372,26.5911714 128.642031,25.9127927 128.642031,25.1159138 C128.642031,24.3268473 128.921976,23.6523749 129.481875,23.0924763 C130.039169,22.5351818 130.71234,22.2565388 131.501406,22.2565388 C132.295681,22.2565388 132.972758,22.5351818 133.532656,23.0924763 C134.092555,23.6497707 134.3725,24.3242431 134.3725,25.1159138 Z M132.251406,24.4909138 C132.251406,24.2617459 132.181745,24.1081016 132.042422,24.0299763 C131.903098,23.9518509 131.679793,23.9127888 131.3725,23.9127888 L130.899844,23.9127888 L130.899844,25.0534138 L131.399844,25.0534138 C131.63422,25.0534138 131.809999,25.0299765 131.927188,24.9831013 C132.143334,24.8971633 132.251406,24.7331025 132.251406,24.4909138 Z M131.446719,23.5338825 C131.837346,23.5338825 132.123801,23.5716425 132.306094,23.6471638 C132.631616,23.7825811 132.794375,24.0482034 132.794375,24.4440388 C132.794375,24.7252902 132.691511,24.9323193 132.485781,25.0651325 C132.376406,25.1354454 132.224063,25.1862261 132.02875,25.2174763 C132.276147,25.2565389 132.457135,25.3594025 132.571719,25.52607 C132.686303,25.6927375 132.743594,25.8554963 132.743594,26.0143513 L132.743594,26.24482 C132.743594,26.317737 132.746198,26.3958612 132.751406,26.479195 C132.756615,26.5625288 132.765729,26.6172157 132.77875,26.6432575 L132.798281,26.68232 L132.27875,26.68232 L132.270938,26.65107 C132.268333,26.6406533 132.265729,26.6289346 132.263125,26.6159138 L132.251406,26.5143513 L132.251406,26.2643513 C132.251406,25.8997661 132.152449,25.6588831 131.954531,25.541695 C131.837343,25.4739863 131.631616,25.4401325 131.337344,25.4401325 L130.899844,25.4401325 L130.899844,26.68232 L130.345156,26.68232 L130.345156,23.5338825 L131.446719,23.5338825 Z" id="®"></path>
        </g>
    </g>
</svg>